<?xml version="1.0" encoding="utf-8"?>
<!-- Generator: Adobe Illustrator 17.1.0, SVG Export Plug-In . SVG Version: 6.00 Build 0)  -->
<!DOCTYPE svg PUBLIC "-//W3C//DTD SVG 1.1//EN" "http://www.w3.org/Graphics/SVG/1.1/DTD/svg11.dtd">
<svg version="1.1" xmlns="http://www.w3.org/2000/svg" xmlns:xlink="http://www.w3.org/1999/xlink" x="0px" y="0px"
	 viewBox="0 0 311 360" enable-background="new 0 0 311 360" xml:space="preserve">
<g>
	<g>
		<rect x="0" fill="#FFFFFF" width="311" height="322.4"/>
		<rect y="322.4" fill="#FF322E" width="311" height="37.6"/>
	</g>
	<g>
		<polygon points="71.6,84.8 19.3,241.7 57.2,241.7 92.7,130.8 110.5,186.2 87.4,186.2 78.2,217.9 120.6,217.9 128.3,241.7 
			167.2,241.7 114.9,84.8 		"/>
		<path d="M226.7,84.8h-54.3v156.8h37.6V116.5h15.1c17.6,0,27.6,8.4,27.6,23.5c0,14.9-10,23.5-27.6,23.5h-2.4v31.6h4.1
			c40.6,0,64.3-20.4,64.3-55.2C291,104.6,267.2,84.8,226.7,84.8z"/>
	</g>
</g>
</svg>
