<?xml version="1.0" encoding="UTF-8" standalone="no"?>
<!-- Created with Inkscape (http://www.inkscape.org/) -->
<svg
   xmlns:svg="http://www.w3.org/2000/svg"
   xmlns="http://www.w3.org/2000/svg"
   version="1.0"
   width="921.25983"
   height="177.16534"
   id="svg2225">
  <defs
     id="defs2227" />
  <g
     id="layer1">
    <g
       transform="matrix(3.543307e-5,0,0,3.543307e-5,0.754493,1.742845e-4)"
       style="fill-rule:evenodd"
       id="Ebene_x0020_1">
  
  <g
   id="_209955720">
   <path
   d="M 3917950,290600 L 2987680,290600 L 457413.24,4032236.8 L 1528553.2,4033136.8 L 1855620,3488840 L 2839690,3483120 L 2839690,2637420 L 2416830,2637420 L 2973110,1719300 L 2987680,4032840 L 3917950,4032840 L 3917950,290600 L 3917950,290600 z M 4996230,1791720 L 5334510,1791720 C 5559970,1791720 5778500,1963040 5778500,2193420 L 5778500,2299140 C 5778500,2504230 5603020,2679700 5397930,2679700 L 5144220,2679700 L 5144220,3483120 L 5863070,3483120 C 6122400,3483120 6415820,3256140 6523140,3086070 C 6661390,2866970 6729920,2585390 6729920,2235710 C 6729920,1467670 6078580,988300 5313370,988300 L 4065960,988300 L 4065960,4709390 L 4996230,4709390 L 4996230,1791720 L 4996230,1791720 z "
   style="fill:#cc3401"
   id="_209052536" />

   <path
   d="M 25461800,2578570 C 25435540,2220470 25139510,2158390 24891220,2158390 C 24494910,2158390 24377940,2397130 24377940,2583340 C 24377940,3058430 25165770,2898480 25165770,3110950 C 25165770,3158700 25125180,3242250 24953290,3242250 C 24743200,3242250 24676360,3163480 24676360,3056040 L 24332570,3056040 C 24342120,3395050 24654870,3495710 24943740,3495710 C 25141900,3495710 25500000,3428470 25500000,3058430 C 25500000,2590500 24705010,2736140 24705010,2535590 C 24705010,2480690 24728870,2411450 24910320,2411450 C 25091760,2411450 25120410,2497400 25134730,2578570 L 25461800,2578570 z M 24255860,2578570 C 24229610,2220470 23933570,2158390 23685280,2158390 C 23288980,2158390 23172000,2397130 23172000,2583340 C 23172000,3058430 23959830,2898480 23959830,3110950 C 23959830,3158700 23919240,3242250 23747360,3242250 C 23537270,3242250 23470420,3163480 23470420,3056040 L 23126630,3056040 C 23136180,3395050 23448930,3495710 23737810,3495710 C 23935960,3495710 24294060,3428470 24294060,3058430 C 24294060,2590500 23499070,2736140 23499070,2535590 C 23499070,2480690 23522940,2411450 23704380,2411450 C 23885820,2411450 23914470,2497400 23928790,2578570 L 24255860,2578570 z M 22247770,2700330 C 22266870,2533200 22350430,2432940 22507990,2432940 C 22615430,2432940 22746730,2495020 22765830,2700330 L 22247770,2700330 z M 22751500,3089470 C 22725240,3180190 22629740,3227930 22536640,3227930 C 22266870,3227930 22247770,3013070 22238220,2917580 L 23109600,2917580 L 23109600,2857890 C 23109600,2277770 22763440,2158390 22512770,2158390 C 21956510,2158390 21903990,2647800 21903990,2800590 C 21903990,3323430 22178530,3495710 22536640,3495710 C 22753890,3495710 23006950,3395050 23095280,3089470 L 22751500,3089470 z M 21169500,3461890 L 21503730,3461890 L 21503730,2800590 C 21503730,2659740 21551480,2497400 21811710,2497400 C 21842740,2497400 21878550,2497400 21907200,2502180 L 21907200,2163170 C 21885710,2160780 21864220,2158390 21842740,2158390 C 21639810,2158390 21563420,2282540 21494180,2411450 L 21489410,2411450 L 21489410,2191820 L 21169500,2191820 L 21169500,3461890 z M 20084500,2547530 L 20084500,2043800 L 20368590,2043800 C 20590610,2043800 20683720,2113030 20683720,2280150 C 20683720,2356540 20683720,2547530 20416340,2547530 L 20084500,2547530 z M 20084500,2843570 L 20495120,2843570 C 20955880,2843570 21041820,2452040 21041820,2296870 C 21041820,1960240 20841290,1747770 20509450,1747770 L 19726390,1747770 L 19726390,3461890 L 20084500,3461890 L 20084500,2843570 z M 18066110,2836400 C 18066110,2635870 18137730,2447270 18350210,2447270 C 18579400,2447270 18636700,2652580 18636700,2855500 C 18636700,3044100 18553130,3220770 18340660,3220770 C 18125800,3220770 18066110,2986800 18066110,2836400 z M 18956610,1747770 L 18622370,1747770 L 18622370,2356540 L 18617600,2356540 C 18565070,2275380 18464810,2158390 18249940,2158390 C 17970620,2158390 17722330,2373250 17722330,2812530 C 17722330,3161090 17879900,3495710 18257110,3495710 C 18395570,3495710 18543580,3445180 18624760,3301940 L 18629530,3301940 L 18629530,3461890 L 18956610,3461890 L 18956610,1747770 z M 16833920,2700330 C 16853020,2533200 16936570,2432940 17094140,2432940 C 17201570,2432940 17332880,2495020 17351980,2700330 L 16833920,2700330 z M 17337650,3089470 C 17311390,3180190 17215890,3227930 17122790,3227930 C 16853020,3227930 16833920,3013070 16824370,2917580 L 17695750,2917580 L 17695750,2857890 C 17695750,2277770 17349590,2158390 17098920,2158390 C 16542660,2158390 16490130,2647800 16490130,2800590 C 16490130,3323430 16764680,3495710 17122790,3495710 C 17340040,3495710 17593090,3395050 17681430,3089470 L 17337650,3089470 z M 16278900,1848040 L 15944660,1848040 L 15944660,2191820 L 15772770,2191820 L 15772770,2430550 L 15944660,2430550 L 15944660,3201670 C 15944660,3366400 15997190,3476610 16286060,3476610 L 16329030,3476610 C 16381550,3476610 16434070,3474230 16486600,3471840 L 16486600,3218380 C 16462720,3220770 16438850,3223150 16417360,3223150 C 16281290,3223150 16278900,3194510 16278900,3120500 L 16278900,2430550 L 16486600,2430550 L 16486600,2191820 L 16278900,2191820 L 16278900,1848040 z M 15375740,3005900 C 15375740,3161090 15225330,3256580 15077320,3256580 C 15012860,3256580 14922140,3220770 14922140,3103790 C 14922140,2965330 15024790,2934290 15148940,2912800 C 15287410,2891320 15342320,2869830 15375740,2843570 L 15375740,3005900 z M 15702810,2526050 C 15702810,2213300 15375740,2158390 15196680,2158390 C 14936470,2158390 14666690,2213300 14628490,2602440 L 14950790,2602440 C 14960340,2528430 14988980,2425780 15156100,2425780 C 15242040,2425780 15375740,2432940 15375740,2573790 C 15375740,2645420 15311280,2666900 15258760,2674070 L 14957950,2719430 C 14745470,2750460 14587910,2876990 14587910,3125280 C 14587910,3387890 14783670,3495710 14974660,3495710 C 15201460,3495710 15308890,3390280 15385290,3311490 C 15392450,3383110 15397230,3402210 15416330,3461890 L 15776820,3461890 L 15776820,3411760 C 15736230,3397440 15702810,3364010 15702810,3213600 L 15702810,2526050 z M 14475380,1731050 L 14141150,1731050 L 14141150,2041420 L 14475380,2041420 L 14475380,1731050 z M 14141150,2191820 L 14141150,3461890 L 14475380,3461890 L 14475380,2191820 L 14141150,2191820 z M 13680070,2998740 C 13680070,3058430 13622770,3220770 13453270,3220770 C 13200200,3220770 13195430,2946230 13195430,2807750 C 13195430,2650190 13250340,2440100 13460430,2440100 L 13477140,2440100 C 13620380,2440100 13668130,2564240 13682450,2645420 L 14021460,2645420 C 13990430,2249120 13660970,2158390 13460430,2158390 C 13030700,2158390 12851650,2452040 12851650,2862670 C 12851650,3130050 12961470,3495710 13438940,3495710 C 13904480,3495710 14007140,3130050 14019080,2998740 L 13680070,2998740 z M 12445070,2826850 C 12445070,2989190 12397320,3213600 12139490,3213600 C 11881650,3213600 11833900,2989190 11833900,2826850 C 11833900,2664520 11881650,2440100 12139490,2440100 C 12397320,2440100 12445070,2664520 12445070,2826850 z M 12788850,2826850 C 12788850,2368480 12480870,2158390 12139490,2158390 C 11798090,2158390 11490120,2368480 11490120,2826850 C 11490120,3285230 11798090,3495710 12139490,3495710 C 12480870,3495710 12788850,3285230 12788850,2826850 z M 11403860,2578570 C 11377600,2220470 11081560,2158390 10833280,2158390 C 10436970,2158390 10320000,2397130 10320000,2583340 C 10320000,3058430 11107820,2898480 11107820,3110950 C 11107820,3158700 11067240,3242250 10895350,3242250 C 10685260,3242250 10618410,3163480 10618410,3056040 L 10274630,3056040 C 10284180,3395050 10596930,3495710 10885800,3495710 C 11083950,3495710 11442060,3428470 11442060,3058430 C 11442060,2590500 10647060,2736140 10647060,2535590 C 10647060,2480690 10670930,2411450 10852370,2411450 C 11033820,2411450 11062470,2497400 11076780,2578570 L 11403860,2578570 z M 10197920,2578570 C 10171660,2220470 9875630,2158390 9627340,2158390 C 9231030,2158390 9114060,2397130 9114060,2583340 C 9114060,3058430 9901890,2898480 9901890,3110950 C 9901890,3158700 9861300,3242250 9689410,3242250 C 9479320,3242250 9412480,3163480 9412480,3056040 L 9068690,3056040 C 9078240,3395050 9390990,3495710 9679870,3495710 C 9878020,3495710 10236120,3428470 10236120,3058430 C 10236120,2590500 9441130,2736140 9441130,2535590 C 9441130,2480690 9464990,2411450 9646440,2411450 C 9827880,2411450 9856530,2497400 9870850,2578570 L 10197920,2578570 z M 8229170,2134520 L 8233940,2134520 L 8446420,2812530 L 8009530,2812530 L 8229170,2134520 z M 7914040,3108560 L 8546690,3108560 L 8656520,3461890 L 9045650,3461890 L 8441650,1747770 L 8028630,1747770 L 7417470,3461890 L 7794670,3461890 L 7914040,3108560 z "
   id="_209053016" />

  </g>

 </g>
  </g>
</svg>
