<?xml version="1.0" encoding="utf-8"?>
<!-- Svg Vector Icons : http://www.onlinewebfonts.com/icon -->
<!DOCTYPE svg PUBLIC "-//W3C//DTD SVG 1.1//EN" "http://www.w3.org/Graphics/SVG/1.1/DTD/svg11.dtd">
<svg version="1.1" xmlns="http://www.w3.org/2000/svg" xmlns:xlink="http://www.w3.org/1999/xlink" x="0px" y="0px" viewBox="0 0 1000 1000" enable-background="new 0 0 1000 1000" xml:space="preserve">
<metadata> Svg Vector Icons : http://www.onlinewebfonts.com/icon </metadata>
<g><g transform="translate(0.000000,115.000000) scale(0.100000,-0.100000)"><path d="M1858.4-1658.3C1033.5-1837.6,372-2479.2,156.8-3300.1c-75.7-290.9-75.7-844.8,0-1127.7c203.2-769.1,844.8-1418.6,1594-1613.9c183.3-47.8,474.2-59.8,1307.1-59.8c1199.5,0,1255.3,12,1454.5,271c107.6,139.5,107.6,139.5,119.6,952.4c8,446.3,23.9,808.9,39.8,808.9c16,0,279-398.5,585.8-884.7c362.7-569.8,613.7-924.5,709.3-1004.2c143.5-115.5,175.4-123.5,486.2-123.5s342.7,8,486.2,123.5c83.7,63.8,191.3,199.2,243.1,294.9c79.7,163.4,87.7,231.1,87.7,868.7c0,462.3,11.9,689.4,39.9,677.4c23.9-8,286.9-398.5,589.8-864.7c645.6-1012.2,725.3-1091.9,1119.8-1111.8c294.9-15.9,498.1,55.8,669.5,239.1C9900-5631.3,9900-5615.3,9900-3531.2v1932.7h-278.9h-279v-1884.9c0-2104,4-2060.2-259-2060.2c-171.3,0-119.5-71.7-1255.3,1713.5c-510.1,801-944.4,1466.5-968.3,1482.4C6724-2264,6712-2383.5,6712-3909.8c0-1402.7-4-1506.3-71.7-1566.1c-95.7-87.7-298.9-87.7-374.6,4c-35.8,35.9-486.1,741.2-1008.2,1562.1c-522,820.9-972.3,1518.3-1000.2,1550.1c-43.8,47.8-63.8,47.8-111.6,8c-55.8-47.8-63.8-267-71.7-1613.9L4062-5523.7l-1012.2-11.9c-852.8-8-1048.1,0-1215.4,55.8c-450.3,143.5-824.9,478.2-1032.1,924.5c-155.4,338.7-195.3,812.9-87.7,1171.6c167.4,585.8,681.4,1052,1287.1,1183.5c115.6,23.9,434.4,43.8,705.4,43.8h498.1v278.9v278.9l-545.9-4C2356.5-1602.5,1997.8-1630.4,1858.4-1658.3z"/><path d="M3906.6-1658.3c-83.7-27.9-207.2-103.6-271-167.4c-251-235.1-251-227.1-271-1665.7l-19.9-1315l-597.7-12c-721.3-11.9-848.8,23.9-1107.8,310.8c-302.9,334.8-346.7,781.1-115.6,1151.7c223.2,366.6,553.9,490.2,1263.2,478.2l398.5-8v275v275l-454.3,11.9c-251.1,4-545.9-8-657.5-31.9c-506.1-103.6-892.6-406.5-1111.8-868.7c-115.6-243.1-127.5-302.9-127.5-645.6c0-346.7,11.9-402.5,127.5-641.6c155.4-318.8,442.3-597.7,761.1-745.2c223.2-107.6,239.1-107.6,1215.4-119.6l984.3-11.9V-3858v1530.2l91.6,83.7c103.6,99.6,219.2,111.6,318.8,39.9c35.9-27.9,514.1-749.2,1060-1605.9c729.2-1143.7,1008.2-1554.1,1064-1554.1c71.7,0,75.7,63.8,87.6,1510.3c8,1490.4,12,1514.3,95.7,1605.9c95.7,99.6,219.2,119.6,322.8,43.8c35.9-27.9,510.1-749.2,1056-1605.9c753.2-1187.5,1004.2-1554.1,1064-1554.1c79.7,0,79.7,39.9,91.7,1884.9l8,1880.9h-278.9h-279v-1016.2c0-557.9-11.9-1016.2-27.9-1016.2c-19.9,0-290.9,410.4-609.7,908.6c-561.9,876.7-585.8,908.6-793,1016.2c-350.7,175.4-709.3,119.6-968.4-155.4c-203.2-219.2-231.1-350.7-231.1-1091.9c0-370.6-11.9-677.5-27.9-677.5c-19.9,4-282.9,398.5-589.8,884.7c-306.9,486.2-609.7,916.5-677.4,968.3C4456.5-1598.5,4185.6-1558.7,3906.6-1658.3z"/></g></g>
</svg>