<svg id="icon-times" xmlns="http://www.w3.org/2000/svg" viewBox="0 0 54 54"><title>nytT_54x54_svg_04032017</title><path d="M41.84,31.58A12.15,12.15,0,0,1,35,38.79V31.58l4-3.55-4-3.51v-5a6.24,6.24,0,0,0,6.11-6.16c0-4.25-4.05-5.75-6.36-5.75a6.87,6.87,0,0,0-1.82.2V8c0.3,0,.75-0.05.91-0.05,1.6,0,2.81.75,2.81,2.2a2.3,2.3,0,0,1-2.39,2.21H34.13c-4,0-8.62-3.21-13.63-3.21-4.54,0-7.61,3.35-7.61,6.76s1.85,4.44,3.93,5.21l0.05-.2a2.39,2.39,0,0,1-1.1-2.2A3,3,0,0,1,18.92,16c4.25,0,11.12,3.55,15.37,3.55h0.44v5l-4,3.45,4,3.55v7.27a14.82,14.82,0,0,1-5.11.85C23,39.69,18.8,35.68,18.8,29a16,16,0,0,1,.65-4.65l3.31-1.45V37.64l6.71-3v-15l-9.91,4.41a10.74,10.74,0,0,1,5.51-6.21L25,17.71c-6.61,1.45-13,6.46-13,14,0,8.69,7.27,14.67,15.82,14.67,9,0,14.17-6,14.17-14.77H41.84Z"/></svg>