<svg id="Artwork" xmlns="http://www.w3.org/2000/svg" viewBox="0 0 115 108"><defs><style>.cls-1{fill:#ff8000;}</style></defs><title>logo-reuters-kinesis-orange</title><path class="cls-1" d="M51.5,38.2a2.15,2.15,0,0,1-.9,3,2.28,2.28,0,1,1-2.2-4A2.36,2.36,0,0,1,51.5,38.2ZM40.4,55.9a1.32,1.32,0,0,0,1.3,2.3,1.29,1.29,0,0,0,.5-1.8A1.31,1.31,0,0,0,40.4,55.9Zm-0.2-5.4a1.58,1.58,0,0,0-.6,2.1,1.44,1.44,0,0,0,2.1.6,1.61,1.61,0,0,0,.6-2.1A1.44,1.44,0,0,0,40.2,50.5Zm1.4-5.3a1.7,1.7,0,0,0-.7,2.4A1.77,1.77,0,0,0,44,45.9,1.92,1.92,0,0,0,41.6,45.2Zm2.8-4.5a1.89,1.89,0,0,0-.8,2.7,2,2,0,0,0,2.7.8,1.89,1.89,0,0,0,.8-2.7A2.06,2.06,0,0,0,44.4,40.7ZM42.2,61a1.1,1.1,0,0,0,1.1,1.9,1.13,1.13,0,0,0,.4-1.5A1.1,1.1,0,0,0,42.2,61ZM67.9,42.5a1.41,1.41,0,0,0,1.8.6,1.37,1.37,0,0,0,.6-1.8,1.33,1.33,0,0,0-1.8-.5A1.23,1.23,0,0,0,67.9,42.5Zm-4.5-2.8a1.52,1.52,0,0,0,2.1.6A1.54,1.54,0,0,0,64,37.6,1.58,1.58,0,0,0,63.4,39.7Zm-5.2-1.4a1.77,1.77,0,1,0,3.1-1.7,1.79,1.79,0,0,0-2.4-.7A1.68,1.68,0,0,0,58.2,38.3Zm-5.5.2a2,2,0,1,0,.8-2.7A2.06,2.06,0,0,0,52.7,38.5Zm18.6,8.1a1.1,1.1,0,1,0,1.9-1.1,1.24,1.24,0,0,0-1.5-.5A1.28,1.28,0,0,0,71.3,46.6ZM67.5,67.7a2.29,2.29,0,0,0-3.1-.9,2.2,2.2,0,0,0-.9,3,2.29,2.29,0,0,0,3.1.9A2.24,2.24,0,0,0,67.5,67.7ZM47.1,65.5a1.32,1.32,0,1,0-2.3,1.3,1.21,1.21,0,0,0,1.8.5A1.29,1.29,0,0,0,47.1,65.5Zm4.5,2.9a1.52,1.52,0,0,0-2.1-.6,1.49,1.49,0,0,0-.6,2.1,1.53,1.53,0,0,0,2.1.7A1.76,1.76,0,0,0,51.6,68.4Zm5.2,1.4a1.68,1.68,0,0,0-2.4-.7A1.77,1.77,0,1,0,56.8,69.8Zm5.5-.2a2,2,0,0,0-2.7-.8,2,2,0,0,0-.8,2.7,2.06,2.06,0,0,0,2.7.8A2,2,0,0,0,62.3,69.6ZM74.6,52.2a1.37,1.37,0,0,0,.6-1.8,1.33,1.33,0,0,0-1.8-.5A1.3,1.3,0,1,0,74.6,52.2Zm0.3,5.4a1.58,1.58,0,0,0,.6-2.1A1.54,1.54,0,1,0,74.9,57.6Zm-1.5,5.3a1.7,1.7,0,0,0,.7-2.4,1.79,1.79,0,0,0-2.4-.7,1.7,1.7,0,0,0-.7,2.4A1.92,1.92,0,0,0,73.4,62.9Zm-2.8,4.4a2,2,0,0,0,.8-2.7,1.89,1.89,0,0,0-2.7-.8,2,2,0,0,0-.8,2.7A1.89,1.89,0,0,0,70.6,67.3Z"/><path class="cls-1" d="M66.8,32.8a2.85,2.85,0,0,1-3.6,1.9,3,3,0,0,1-2-3.6,3,3,0,0,1,3.6-2A3.1,3.1,0,0,1,66.8,32.8ZM39,39.7a1.43,1.43,0,0,0-1.8,1,1.47,1.47,0,0,0,1,1.8,1.43,1.43,0,0,0,1.8-1A1.61,1.61,0,0,0,39,39.7Zm5-5.5a1.77,1.77,0,1,0,1.2,2.2A1.73,1.73,0,0,0,44,34.2Zm6.4-4a2.3,2.3,0,0,0-2.8,1.5,2.22,2.22,0,0,0,1.5,2.8A2.3,2.3,0,0,0,51.9,33,2.22,2.22,0,0,0,50.4,30.2Zm7.2-1.5a2.5,2.5,0,0,0-1.4,4.8,2.53,2.53,0,0,0,3.1-1.7A2.48,2.48,0,0,0,57.6,28.7ZM35.8,46.5a1,1,0,0,0-1.3.7,1,1,0,0,0,.7,1.3,1,1,0,0,0,1.3-.7A1.21,1.21,0,0,0,35.8,46.5ZM79.1,53a1.47,1.47,0,0,0,1,1.8,1.43,1.43,0,0,0,1.8-1,1.52,1.52,0,0,0-1-1.8A1.43,1.43,0,0,0,79.1,53Zm-1.6-7.2A1.77,1.77,0,0,0,78.7,48,1.77,1.77,0,1,0,77.5,45.8Zm-3.9-6.4a2.22,2.22,0,0,0,1.5,2.8,2.39,2.39,0,0,0,2.8-1.5,2.3,2.3,0,0,0-1.5-2.8A2.18,2.18,0,0,0,73.6,39.4Zm-5.5-5a2.5,2.5,0,1,0,4.8,1.4,2.59,2.59,0,0,0-1.7-3.2A2.51,2.51,0,0,0,68.1,34.4ZM78.5,60.2a1.09,1.09,0,0,0,.7,1.3,1,1,0,0,0,.6-2A1.1,1.1,0,0,0,78.5,60.2ZM53.8,76.9a2.91,2.91,0,1,0-5.6-1.6,2.9,2.9,0,0,0,2,3.6A2.94,2.94,0,0,0,53.8,76.9ZM35.9,55.1a1.46,1.46,0,0,0-2.8-.8A1.46,1.46,0,0,0,35.9,55.1Zm1.7,7.2a1.81,1.81,0,0,0-1.2-2.2,1.69,1.69,0,0,0-2.2,1.2,1.73,1.73,0,0,0,1.2,2.2A1.81,1.81,0,0,0,37.6,62.3Zm3.9,6.4A2.39,2.39,0,0,0,40,65.9a2.22,2.22,0,0,0-2.8,1.5,2.3,2.3,0,0,0,1.5,2.8A2.22,2.22,0,0,0,41.5,68.7Zm5.5,5a2.64,2.64,0,0,0-1.7-3.2,2.53,2.53,0,0,0-3.1,1.7,2.64,2.64,0,0,0,1.7,3.2A2.45,2.45,0,0,0,47,73.7Zm29.1-5.3a1.43,1.43,0,0,0,1.8-1,1.46,1.46,0,0,0-2.8-.8A1.43,1.43,0,0,0,76.1,68.4ZM71,73.9a1.77,1.77,0,1,0-1.2-2.2A1.8,1.8,0,0,0,71,73.9Zm-6.4,3.9a2.25,2.25,0,1,0,1.3-4.3,2.36,2.36,0,0,0-2.8,1.6A2.11,2.11,0,0,0,64.6,77.8Zm-7.1,1.6a2.5,2.5,0,1,0,1.4-4.8,2.59,2.59,0,0,0-3.2,1.7A2.51,2.51,0,0,0,57.5,79.4Z"/><path class="cls-1" d="M81.2,34.3a3.75,3.75,0,0,1-5.4-5.2,3.78,3.78,0,0,1,5.3-.2A3.9,3.9,0,0,1,81.2,34.3ZM44.1,25.8a1.84,1.84,0,1,0,.1,2.6A2,2,0,0,0,44.1,25.8Zm9.3-3.5a2.26,2.26,0,1,0,.1,3.2A2.33,2.33,0,0,0,53.4,22.3Zm10-.7a2.9,2.9,0,1,0,.1,4.1A3,3,0,0,0,63.4,21.6ZM72.8,24a3.25,3.25,0,1,0,.1,4.6A3.2,3.2,0,0,0,72.8,24ZM36.1,32.1a1.35,1.35,0,1,0,.1,1.9A1.3,1.3,0,0,0,36.1,32.1ZM83.9,65.9a1.79,1.79,0,0,0,.1,2.6,2,2,0,0,0,2.6-.1A1.84,1.84,0,1,0,83.9,65.9Zm2.3-9.5a2.26,2.26,0,1,0,3.2-.1A2.24,2.24,0,0,0,86.2,56.4Zm-0.7-10a2.9,2.9,0,1,0,4.1-.1A2.87,2.87,0,0,0,85.5,46.4ZM82,37.1a3.29,3.29,0,0,0,.1,4.6,3.39,3.39,0,0,0,4.6-.1,3.29,3.29,0,0,0-.1-4.6A3.2,3.2,0,0,0,82,37.1Zm-3.2,37a1.42,1.42,0,0,0,.1,2,1.3,1.3,0,0,0,1.9-.1,1.42,1.42,0,0,0-.1-2A1.4,1.4,0,0,0,78.8,74.1ZM39.2,78.9a3.87,3.87,0,0,0-.1-5.3A3.75,3.75,0,1,0,34,79.1,3.65,3.65,0,0,0,39.2,78.9Zm-8-36.7a1.88,1.88,0,0,0-.1-2.6A1.84,1.84,0,1,0,31.2,42.2Zm-2.4,9.5a2.26,2.26,0,1,0-3.2.1A2.23,2.23,0,0,0,28.8,51.7Zm0.7,10a2.9,2.9,0,1,0-4.1.1A2.87,2.87,0,0,0,29.5,61.7ZM33,71a3.22,3.22,0,1,0-4.6.2A3.39,3.39,0,0,0,33,71ZM71,82.3a1.84,1.84,0,0,0,2.5-2.7,1.88,1.88,0,0,0-2.6.1A1.79,1.79,0,0,0,71,82.3Zm-9.4,3.5a2.26,2.26,0,1,0,3.1-3.3A2.26,2.26,0,1,0,61.6,85.8Zm-10,.7a2.9,2.9,0,1,0-.1-4.1A3,3,0,0,0,51.6,86.5Zm-9.4-2.4a3.25,3.25,0,1,0-.1-4.6A3.2,3.2,0,0,0,42.2,84.1Z"/><path class="cls-1" d="M96.4,42.2a4.5,4.5,0,1,1,2.4-5.9A4.56,4.56,0,0,1,96.4,42.2ZM64.6,13.5a2.4,2.4,0,0,0-2.9-1.9,2.63,2.63,0,0,0-2,2.9A2.5,2.5,0,0,0,64.6,13.5Zm10.7,2.3a3,3,0,1,0-2.2,3.7A3.05,3.05,0,0,0,75.3,15.8Zm9.9,4.7a3.76,3.76,0,1,0-2.5,4.7A3.75,3.75,0,0,0,85.2,20.5Zm7.9,7.1a4.2,4.2,0,0,0-5.3-2.5A4.14,4.14,0,1,0,93.1,27.6ZM43.2,16.3a1.75,1.75,0,0,0-2.4-.9A1.79,1.79,0,1,0,43.2,16.3ZM88.5,76.1a2.51,2.51,0,1,0,3.5.6A2.56,2.56,0,0,0,88.5,76.1Zm4.9-9.7a3,3,0,0,0-.9,4.2,3.18,3.18,0,0,0,4.2,1,3.05,3.05,0,0,0,.9-4.2A3,3,0,0,0,93.4,66.4Zm2.4-10.9a3.66,3.66,0,0,0-1.4,5.1A3.75,3.75,0,0,0,99.5,62,3.74,3.74,0,0,0,95.8,55.5Zm-0.2-11A4.08,4.08,0,0,0,93.7,50a4.18,4.18,0,1,0,7.5-3.7A4.21,4.21,0,0,0,95.6,44.5Zm-22.8,45a1.81,1.81,0,1,0,2.4.9A1.83,1.83,0,0,0,72.8,89.5ZM22.2,74.2a4.56,4.56,0,0,0,2.4-5.9,4.52,4.52,0,0,0-8.3,3.6A4.52,4.52,0,0,0,22.2,74.2ZM26.6,32a2.51,2.51,0,1,0-3.5-.6A2.63,2.63,0,0,0,26.6,32Zm-5,9.7a3,3,0,1,0-4.2-.9A3,3,0,0,0,21.6,41.7ZM19.2,52.6A3.78,3.78,0,0,0,15.5,46a3.66,3.66,0,0,0-1.4,5.1A3.62,3.62,0,0,0,19.2,52.6Zm0.2,11A4.25,4.25,0,0,0,21.3,58a4.16,4.16,0,0,0-5.6-1.9,4.25,4.25,0,0,0-1.9,5.6A4.16,4.16,0,0,0,19.4,63.6Zm31,31a2.63,2.63,0,0,0,2.9,2,2.53,2.53,0,0,0,1.9-3A2.45,2.45,0,0,0,50.4,94.6ZM39.7,92.3a3.09,3.09,0,0,0,3.7,2.2,3,3,0,0,0,2.2-3.7,3.09,3.09,0,0,0-3.7-2.2A3.05,3.05,0,0,0,39.7,92.3Zm-9.9-4.8a3.76,3.76,0,1,0,2.5-4.7A3.8,3.8,0,0,0,29.8,87.5Zm-7.9-7a4.11,4.11,0,1,0,7.7-2.9A4.11,4.11,0,1,0,21.9,80.5Zm59.4,3.7a1.92,1.92,0,0,0-.3,2.7,1.84,1.84,0,0,0,2.7.3,1.92,1.92,0,0,0,.3-2.7A1.9,1.9,0,0,0,81.3,84.2ZM63.1,92.1a2,2,0,0,0-1.7,2.2,1.9,1.9,0,0,0,2.2,1.6,1.86,1.86,0,0,0,1.6-2.2A1.77,1.77,0,0,0,63.1,92.1ZM53.6,13.8a1.81,1.81,0,0,0-2.2-1.6,1.93,1.93,0,0,0-1.6,2.2A1.9,1.9,0,0,0,52,16,1.94,1.94,0,0,0,53.6,13.8ZM34,21.2a1.92,1.92,0,1,0-.3,2.7A1.92,1.92,0,0,0,34,21.2Z"/><path class="cls-1" d="M109.2,59.8A5.8,5.8,0,1,1,115,54,5.8,5.8,0,0,1,109.2,59.8ZM86.5,9.9a3.18,3.18,0,1,0-3.7,2.4A3.14,3.14,0,0,0,86.5,9.9Zm11.4,8.2a3.85,3.85,0,1,0-4.4,3.2A3.85,3.85,0,0,0,97.9,18.1Zm9.2,10.6a4.76,4.76,0,0,0-4.3-5.3,4.83,4.83,0,1,0-1,9.6A4.89,4.89,0,0,0,107.1,28.7Zm5.7,12.2a5.31,5.31,0,1,0-5.6,5A5.27,5.27,0,0,0,112.8,40.9ZM59.8,2.3A2.26,2.26,0,0,0,57.5,0a2.33,2.33,0,0,0-2.3,2.3,2.26,2.26,0,0,0,2.3,2.3A2.2,2.2,0,0,0,59.8,2.3ZM82.7,95.7a3.34,3.34,0,0,0-2.5,3.8A3.26,3.26,0,0,0,84,102a3.19,3.19,0,0,0,2.4-3.8A3,3,0,0,0,82.7,95.7Zm10.8-8.9a3.85,3.85,0,0,0-3.2,4.4,3.78,3.78,0,0,0,4.4,3.2A3.91,3.91,0,0,0,97.9,90,3.85,3.85,0,0,0,93.5,86.8Zm8.3-11.7a4.83,4.83,0,0,0-4.3,5.3,5,5,0,0,0,5.3,4.3A4.83,4.83,0,0,0,101.8,75.1Zm5.4-13a5.31,5.31,0,1,0,5.6,5A5.41,5.41,0,0,0,107.2,62.1ZM57.5,103.4a2.3,2.3,0,1,0,2.3,2.3A2.26,2.26,0,0,0,57.5,103.4ZM5.8,59.8a5.8,5.8,0,1,0,0-11.6A5.87,5.87,0,0,0,0,54,5.8,5.8,0,0,0,5.8,59.8ZM32.3,12.4a3.34,3.34,0,0,0,2.5-3.8A3.19,3.19,0,0,0,31,6.2,3.28,3.28,0,0,0,28.5,10,3.36,3.36,0,0,0,32.3,12.4ZM21.5,21.3a3.78,3.78,0,0,0,3.2-4.4A3.85,3.85,0,1,0,21.5,21.3ZM13.2,33a4.83,4.83,0,1,0-5.3-4.3A4.89,4.89,0,0,0,13.2,33ZM7.8,46a5.31,5.31,0,1,0-.6-10.6,5.22,5.22,0,0,0-5,5.6A5.41,5.41,0,0,0,7.8,46ZM28.5,98.2a3.22,3.22,0,1,0,3.8-2.5A3.18,3.18,0,0,0,28.5,98.2ZM17.1,90a3.85,3.85,0,1,0,4.4-3.2A3.85,3.85,0,0,0,17.1,90ZM7.9,79.4a4.76,4.76,0,0,0,4.3,5.3,4.82,4.82,0,0,0,5.3-4.3,4.76,4.76,0,0,0-4.3-5.3A4.82,4.82,0,0,0,7.9,79.4ZM2.2,67.1a5.28,5.28,0,0,0,5,5.6,5.34,5.34,0,0,0,5.6-5,5.41,5.41,0,0,0-5-5.6A5.41,5.41,0,0,0,2.2,67.1Zm68,34.5a2.62,2.62,0,0,0-1.8,3.1,2.48,2.48,0,0,0,3.1,1.7,2.52,2.52,0,0,0,1.8-3A2.43,2.43,0,0,0,70.2,101.6Zm-25.4,0a2.59,2.59,0,0,0-3.1,1.8,2.37,2.37,0,0,0,1.8,3,2.53,2.53,0,0,0,3.1-1.7A2.57,2.57,0,0,0,44.8,101.6ZM73.3,4.7a2.37,2.37,0,0,0-1.8-3,2.51,2.51,0,0,0-3.1,1.8,2.51,2.51,0,0,0,1.8,3.1A2.56,2.56,0,0,0,73.3,4.7ZM46.5,3.4a2.62,2.62,0,0,0-3.1-1.8,2.57,2.57,0,0,0-1.8,3,2.62,2.62,0,0,0,3.1,1.8A2.33,2.33,0,0,0,46.5,3.4Z"/></svg>