<?xml version="1.0" encoding="utf-8"?>
<!-- Generator: Adobe Illustrator 16.0.3, SVG Export Plug-In . SVG Version: 6.00 Build 0)  -->
<!DOCTYPE svg PUBLIC "-//W3C//DTD SVG 1.1//EN" "http://www.w3.org/Graphics/SVG/1.1/DTD/svg11.dtd">
<svg version="1.1"
	 id="Layer_1" xmlns:cc="http://creativecommons.org/ns#" xmlns:dc="http://purl.org/dc/elements/1.1/" xmlns:rdf="http://www.w3.org/1999/02/22-rdf-syntax-ns#" xmlns:svg="http://www.w3.org/2000/svg"
	 xmlns="http://www.w3.org/2000/svg" xmlns:xlink="http://www.w3.org/1999/xlink" x="0px" y="0px" width="267.333px"
	 height="205.333px" viewBox="0 0 267.333 205.333" enable-background="new 0 0 267.333 205.333" xml:space="preserve">
<g id="twp_x5F_full" transform="translate(-5.8200074,-0.94)">
	<g id="g12">
		<path id="path14" fill="#424142" d="M123.954,18.918v25.039c3.383-1.827,5.752-5.007,6.902-8.594l0.271,0.136
			c-0.745,8.932-6.834,17.863-16.309,17.863c-9.541,0-16.579-7.104-16.579-18.475c0-8.526,5.549-13.873,12.655-18.678
			c-1.015-0.271-2.098-0.406-3.181-0.406c-4.873,0-7.714,3.316-7.714,6.7h-0.406c-0.068-0.474-0.068-0.947-0.068-1.421
			c0-6.023,3.181-13.332,10.896-13.332c4.939,0,8.73,4.534,14.482,4.534c2.301,0,5.143-1.083,6.292-3.587h0.203
			C131.329,13.097,129.977,17.63,123.954,18.918z M127.608,44.565c-3.385,3.586-7.039,6.633-11.775,6.633
			c-8.796,0-15.563-6.903-15.563-16.919c0-5.886,2.436-9.066,5.143-12.791h-0.271c-1.692,1.692-6.158,5.955-6.158,13.197
			c0,11.099,6.969,17.934,16.104,17.934c6.361,0,10.692-4.398,12.655-7.985L127.608,44.565z M130.313,11.745
			c-1.149,2.165-3.586,4.939-8.525,4.939c-4.939,0-9.474-3.384-13.466-3.384c-3.655,0-6.158,2.437-7.106,4.264l0.068,0.136
			c1.286-1.286,3.247-2.572,6.429-2.572c5.277,0,8.662,3.249,14.007,3.249c5.686,0,8.256-3.723,8.73-6.564L130.313,11.745z
			 M111.501,16.414c-3.451,3.587-6.631,7.512-6.631,15.159c0,4.195,1.421,8.525,4.603,11.232l1.96-1.017V23.653l-1.826,0.947
			l-0.338-0.677l9.473-5.144C116.171,18.24,113.87,17.089,111.501,16.414z M123.209,19.051c-0.474,0.067-0.946,0.067-1.489,0.067
			c-0.947,0-1.826-0.067-2.707-0.271v19.759l-8.865,4.807c1.828,1.353,4.06,2.165,6.902,2.165c2.301,0,4.331-0.475,6.158-1.286
			L123.209,19.051L123.209,19.051z M113.464,22.503l-1.285,0.744v18.137l1.285-0.677V22.503z M152.374,25.076V48.49
			c0,6.496-5.751,10.895-12.181,12.18l-0.135-0.271c3.182-1.559,5.008-4.737,5.008-8.121V28.051l-3.654-3.315l-1.42,1.556v18.88
			L142.022,47v0.136l-5.48,5.955l-6.292-5.751v-0.271l2.435-2.57V14.586l7.174-7.646l0.135,0.067v18.136l5.887-6.361l6.158,5.55
			l1.149-1.219l0.543,0.475L152.374,25.076z M133.428,47.204v-0.136l1.42-1.422V13.435l-1.42,1.49v30.045l-2.166,2.166v0.135
			l5.277,4.737l0.947-1.083L133.428,47.204z M147.233,26.968l-4.4-3.789l-0.945,1.015l3.924,3.52v24.362
			c0,1.624-0.338,3.315-0.947,4.262l0.068,0.068c1.691-1.219,2.301-3.047,2.301-5.414V26.968L147.233,26.968z M163.134,38.676v3.451
			l6.564,5.143l3.79-4.061l0.542,0.541l-8.799,9.406l-8.933-7.173l-1.353,1.422l-0.543-0.541l1.558-1.624V28.12l12.79-9.339
			l6.7,10.828L163.134,38.676z M158.126,44.632V27.443l-1.421,1.016v16.851l8.392,6.834l1.084-1.148L158.126,44.632z M163.271,23.79
			l-0.137,0.068v13.874l6.023-4.398L163.271,23.79z M165.029,22.437l-1.217,0.879l5.955,9.542l1.219-0.88L165.029,22.437z"/>
		<path id="path16" fill="#424142" d="M37.559,116.095l-9.407-8.121l-7.173,8.121l-9.745-8.392V94.44H9.339
			c-1.692,0-2.571,1.083-2.978,2.369H6.158c-0.135-0.541-0.338-1.489-0.338-2.572c0-1.76,0.474-6.361,5.414-6.361v-11.64
			c0-2.233-2.639-3.113-2.639-6.091c0-3.856,3.654-7.646,10.354-10.016l0.271,0.203c-2.436,1.422-3.722,2.775-3.722,5.685
			c0,4.467,4.331,3.316,4.331,10.354v2.707l7.918-8.324l8.324,8.188l7.85-8.188l7.579,7.444v25.039L37.559,116.095z M13.4,106.621
			V92.342H9.61c-1.963,0-2.842,1.286-2.978,2.436l0.067,0.068c0.677-0.744,1.354-1.15,2.91-1.15h2.368v13.671l8.933,7.715
			l1.015-1.219L13.4,106.621z M13.4,75.559c0-2.774-2.436-3.722-2.436-5.481c0-2.437,0.947-4.466,2.436-6.361l-0.135-0.067
			c-2.03,1.557-3.925,4.061-3.925,6.496c0,2.437,2.639,3.587,2.639,5.753v11.978H13.4V75.559z M27.679,82.327l-5.143-5.008
			l-2.707,2.774v23.957l6.158,5.211l1.692-1.895V82.327z M29.844,106.486V81.379l-5.752-5.685l-1.083,1.083l5.414,5.21v25.243
			l9.136,7.919l1.083-1.018L29.844,106.486z M42.973,81.446l-4.263-4.061l-2.436,2.504v24.093l6.632,5.818l0.067-0.066V81.446z
			 M45.138,80.5l-4.94-4.805l-1.015,1.083l4.534,4.331v28.288l1.421-1.354V80.5z"/>
		<path id="path18" fill="#424142" d="M73.892,116.095l-6.428-5.819l-5.752,5.819l-7.038-6.226l-0.947,1.015l-0.541-0.541
			l1.217-1.286V90.921l12.723-9.204l7.309,5.685l1.285-1.354l0.543,0.542l-1.49,1.556v18.746l3.586,3.315l1.151-1.218l0.541,0.474
			L73.892,116.095L73.892,116.095z M56.569,108.584V90.312l-1.42,1.015v17.934l6.496,5.82l1.084-1.083L56.569,108.584
			L56.569,108.584z M67.464,90.786l-5.549-4.331l-0.203,0.136v19.693l4.603,3.992l1.149-1.15V90.786z M69.63,109.193V89.771
			l-5.752-4.67l-1.353,0.947l5.684,4.467v19.355l5.685,5.143l1.014-1.083L69.63,109.193z M93.584,94.034h6.97v14.48l-10.76,7.579
			c-1.421-1.624-3.452-2.773-5.955-2.773c-2.03,0-3.655,0.679-5.819,2.504l-0.338-0.135l9.203-13.398h-5.685V89.703l11.301-7.85
			c1.354,1.083,2.368,1.691,4.128,1.691c1.354,0,3.315-0.271,4.805-1.488l0.271,0.135L93.584,94.034z M86.006,111.357
			c-1.963,0-3.519,0.68-4.873,1.625v0.138c1.083-0.476,2.166-0.609,3.181-0.609c1.557,0,3.994,0.745,5.617,2.642l1.556-1.149
			C90.201,112.509,88.645,111.357,86.006,111.357L86.006,111.357z M93.245,99.987h-3.79l-7.918,11.438l0.068,0.137
			c1.961-1.423,3.856-2.369,6.158-2.369c2.029,0,4.126,0.946,5.413,2.57l0.068-0.066V99.987z M83.366,99.987V89.094l-1.422,1.015
			v11.369h5.481l1.083-1.488h-5.143V99.987L83.366,99.987z M97.509,86.725c-1.421,1.016-2.233,1.557-4.603,1.557
			c-1.354,0-2.976-0.609-4.261-1.963l-0.136,0.068v9.881h2.571l6.497-9.476L97.509,86.725z M94.261,86.115
			c-1.218,0-2.774-0.608-3.79-1.962l-1.691,1.15c1.285,1.557,2.503,2.233,4.397,2.233c1.218,0,2.978-0.339,4.806-1.896l0.066-0.202
			C96.901,85.914,95.479,86.115,94.261,86.115z M95.411,97.757h-4.399l-1.014,1.421h3.993v13.128l1.421-1.015V97.757z
			 M123.899,88.079v23.416c0,6.496-5.751,10.896-12.179,12.182l-0.136-0.271c3.181-1.56,5.008-4.737,5.008-8.121V91.055
			l-3.653-3.315l-1.422,1.556v18.881l2.03,1.827v0.136l-5.481,5.955l-6.293-5.752v-0.271l2.437-2.569V77.589l7.172-7.646
			l0.135,0.067v18.136l5.889-6.361l6.158,5.55l1.149-1.219l0.542,0.475L123.899,88.079z M104.953,110.208v-0.136l1.421-1.422V76.439
			l-1.421,1.489v30.046l-2.166,2.166v0.136l5.277,4.736l0.947-1.083L104.953,110.208z M118.757,89.972l-4.398-3.789l-0.947,1.015
			l3.925,3.52v24.363c0,1.624-0.338,3.315-0.946,4.263l0.067,0.068c1.692-1.219,2.301-3.047,2.301-5.414L118.757,89.972
			L118.757,89.972z M136.216,116.095l-5.819-5.346l-1.354,1.421l-0.542-0.542l1.557-1.69V90.379l-2.842-2.707l-1.083,1.219
			l-0.542-0.542l6.089-6.632l5.414,4.873l1.354-1.489l0.608,0.474l-1.691,1.827v19.762l3.248,3.045l1.49-1.557l0.541,0.541
			L136.216,116.095L136.216,116.095z M132.223,109.464V89.296l-3.518-3.248l-0.947,1.083l3.045,2.91v20.099l5.413,4.872l1.015-1.083
			L132.223,109.464z M134.253,81.176l-5.548-5.075l5.075-5.414l5.55,5.075L134.253,81.176z M130.803,75.018l-1.015,1.015
			l4.398,4.128l1.015-1.15L130.803,75.018z"/>
		<path id="path20" fill="#424142" d="M164.831,116.095l-5.889-5.346V90.988l-3.588-3.248l-1.895,2.03v18.271l2.098,1.962v0.271
			l-5.548,5.817l-6.295-5.752v-0.202l2.438-2.57V90.514l-3.18-2.91l-1.287,1.421l-0.541-0.541l6.158-6.7l6.157,5.482v1.353
			l6.43-6.835l6.021,5.414l1.354-1.421l0.607,0.541l-1.625,1.692v19.355l3.045,2.842l1.49-1.624l0.541,0.541L164.831,116.095
			L164.831,116.095z M146.965,110.208v-0.136c0,0.136,1.354-1.354,1.354-1.354V89.499l-3.857-3.519l-0.947,1.015l3.383,3.113v17.865
			l-2.098,2.166v0.135l5.211,4.737l1.081-1.148L146.965,110.208z M161.107,109.667V89.838l-4.193-3.79l-1.082,1.15l3.855,3.451
			v19.693l5.074,4.737l1.084-1.151L161.107,109.667L161.107,109.667z M183.915,128.275c-2.232-2.437-3.789-3.451-5.889-3.451
			c-2.232,0-4.805,0.882-7.443,2.303l-0.203-0.202l9.34-10.829l-6.633-5.277l-1.285,1.354l-0.541-0.476l1.488-1.623V90.921
			l12.855-9.204l7.174,5.685l1.221-1.354l0.541,0.542l-1.422,1.556v23.146c0,3.52,1.963,3.384,1.963,6.022
			C195.081,120.359,190.681,123.201,183.915,128.275L183.915,128.275z M174.915,109.531V90.379l-1.422,1.016v18.745l6.697,5.414
			l1.018-1.219L174.915,109.531z M179.65,123.067c-2.23,0-4.264,0.679-6.156,1.961v0.139c1.219-0.477,2.57-1.083,4.873-1.083
			c2.098,0,3.855,1.147,5.615,3.181l1.354-1.083C183.642,124.218,181.612,123.067,179.65,123.067L179.65,123.067z M187.907,116.568
			c-1.691-1.082-2.1-2.232-2.1-5.145v-1.219l-11.232,12.994l0.066,0.068c2.166-1.285,4.129-2.232,7.311-2.232
			c2.707,0,4.533,1.082,6.633,2.843c1.285-1.084,2.164-2.166,2.164-3.857C190.748,118.667,189.597,117.652,187.907,116.568
			L187.907,116.568z M185.808,90.786l-5.617-4.398l-0.135,0.135v20.775l4.332,3.384l1.42-1.623V90.786z M189.937,115.622
			c-1.76-1.354-1.963-2.504-1.963-5.414V89.635l-5.687-4.602l-1.285,0.88l5.55,4.398v20.843c0,2.91,0.137,3.724,1.963,4.938
			c1.625,1.083,2.909,2.233,2.909,3.79c0,0.405-0.067,1.082-0.067,1.082l0.067,0.068c0.339-0.341,0.744-0.882,0.744-1.761
			C192.168,117.787,191.425,116.773,189.937,115.622z M206.179,116.095l-6.228-4.872l-1.287,1.422l-0.541-0.543l1.487-1.623V86.793
			h-3.924l-0.137-0.135l2.369-3.52h1.689v-4.533l7.176-7.647l0.135,0.136v12.045h5.414l0.137,0.136l-2.369,3.519h-3.182v20.505
			l3.723,2.844l1.422-1.558l0.541,0.541L206.179,116.095z M201.779,77.454l-1.42,1.557v4.128h1.42V77.454z M201.779,109.802V86.793
			h-1.42v23.821l5.752,4.468l1.016-1.083L201.779,109.802L201.779,109.802z M234.736,88.755v18.949l-11.438,8.459l-8.597-6.496
			l-1.015,1.149l-0.541-0.541l1.217-1.354V90.379l11.98-8.595l7.982,6.227l1.285-1.354l0.541,0.541L234.736,88.755L234.736,88.755z
			 M216.534,108.246V89.771l-1.424,1.015v18.205l8.121,6.226l1.285-0.945L216.534,108.246L216.534,108.246z M227.427,90.988
			l-5.687-4.467l-0.066,0.068v20.167l5.753,4.331V90.988L227.427,90.988z M229.593,89.771l-6.293-4.873l-1.285,0.947l6.158,4.737
			v21.047l1.42-1.082V89.771L229.593,89.771z M260.587,116.095l-5.891-5.346V90.988l-3.586-3.248l-1.895,2.03v18.271l2.098,1.962
			v0.271l-5.549,5.817l-6.295-5.752v-0.202l2.438-2.57V90.514l-3.182-2.91l-1.285,1.421l-0.541-0.541l6.158-6.7l6.158,5.482v1.353
			l6.428-6.835l6.023,5.414l1.354-1.421l0.609,0.541l-1.625,1.692v19.355l3.045,2.842l1.488-1.624l0.539,0.541L260.587,116.095z
			 M242.72,110.208v-0.136c0,0.136,1.354-1.354,1.354-1.354V89.499l-3.854-3.519l-0.947,1.015l3.383,3.113v17.865l-2.098,2.166
			v0.135l5.211,4.737l1.084-1.148L242.72,110.208L242.72,110.208z M256.864,109.667V89.838l-4.193-3.79l-1.082,1.15l3.854,3.451
			v19.693l5.076,4.737l1.082-1.151L256.864,109.667z"/>
		<path id="path22" fill="#424142" d="M111.379,183.259c-1.895-2.029-2.571-2.707-4.804-3.314v1.488v11.775l-0.138,0.065
			l-2.707-2.438l-7.85,7.241l-0.136-0.067v-18.201c-2.368,0.541-4.872,1.761-7.31,4.195l-0.135-0.068
			c0.475-5.211,3.044-9.065,7.443-10.557v-13.195h-1.42c-1.963,0-3.047,1.017-3.992,2.843h-0.203
			c-0.203-0.607-0.339-1.558-0.339-3.111c0-2.845,2.097-5.82,5.548-5.82h0.405v-7.311l-2.774-2.504l-1.354,1.354l-0.475-0.474
			l6.834-7.241l6.36,5.82v6.158l1.489-1.624v-7.783h0.744v7.104l9-9.678l7.645,6.971v29.44L111.379,183.259L111.379,183.259z
			 M95.749,177.304c-2.774,0.541-4.735,2.234-6.022,4.467l0.067,0.138c1.895-1.624,3.653-2.368,5.955-2.909V177.304L95.749,177.304z
			 M97.915,157.883h-3.724c-2.569,0-3.586,1.624-3.651,3.52l0.065,0.066c0.812-1.354,1.623-1.827,3.248-2.029h2.641v36.882
			l1.421-1.354V157.883L97.915,157.883z M97.915,145.699l-3.384-3.112l-1.084,1.15l3.046,2.706v7.647h1.421L97.915,145.699
			L97.915,145.699z M105.832,149.557l-1.489,1.558V190.3l1.489,1.354V149.557z M114.696,148l-3.993-3.653l-4.127,4.468v23.821
			c3.52,0.34,5.955,1.354,8.051,3.654l0.067-0.066V148H114.696z M106.576,177.304v1.762c2.301,0.541,3.248,1.219,4.871,3.111
			l1.558-1.219C111.379,178.929,109.756,177.712,106.576,177.304L106.576,177.304z M116.861,146.918l-4.603-4.265l-1.083,1.15
			l4.264,3.926v31.47l1.422-1.083V146.918L116.861,146.918z M146.836,155.92v18.948l-11.436,8.459l-8.595-6.496l-1.016,1.149
			l-0.541-0.541l1.218-1.354v-18.541l11.979-8.597l7.982,6.229l1.285-1.354l0.541,0.541L146.836,155.92z M128.634,175.41v-18.476
			l-1.422,1.016v18.205l8.121,6.227l1.286-0.946L128.634,175.41L128.634,175.41z M139.529,158.151l-5.686-4.467l-0.066,0.068v20.166
			l5.752,4.332V158.151L139.529,158.151z M141.695,156.935l-6.295-4.873l-1.284,0.946l6.155,4.738v21.048l1.424-1.082V156.935
			L141.695,156.935z M162.535,161.198h6.971v14.48l-10.76,7.58c-1.421-1.625-3.451-2.774-5.955-2.774
			c-2.03,0-3.652,0.679-5.818,2.504l-0.34-0.135l9.203-13.398h-5.684v-12.589l11.301-7.852c1.354,1.083,2.368,1.691,4.128,1.691
			c1.354,0,3.312-0.271,4.805-1.489l0.271,0.137L162.535,161.198L162.535,161.198z M154.956,178.523
			c-1.961,0-3.52,0.679-4.872,1.625v0.137c1.083-0.475,2.165-0.609,3.181-0.609c1.559,0,3.992,0.746,5.616,2.642l1.558-1.149
			C159.154,179.673,157.595,178.523,154.956,178.523z M162.198,167.152h-3.79l-7.917,11.438l0.064,0.137
			c1.963-1.424,3.857-2.369,6.158-2.369c2.03,0,4.129,0.945,5.414,2.57l0.066-0.066L162.198,167.152L162.198,167.152z
			 M152.318,167.152v-10.894l-1.424,1.015v11.37h5.481l1.083-1.488h-5.141V167.152L152.318,167.152z M166.46,153.889
			c-1.422,1.016-2.232,1.557-4.604,1.557c-1.354,0-2.979-0.607-4.264-1.963l-0.137,0.068v9.881h2.57l6.498-9.476L166.46,153.889
			L166.46,153.889z M163.211,153.278c-1.218,0-2.774-0.607-3.789-1.962l-1.69,1.149c1.285,1.558,2.504,2.233,4.397,2.233
			c1.218,0,2.979-0.34,4.806-1.896l0.066-0.202C165.851,153.076,164.431,153.278,163.211,153.278L163.211,153.278z M164.362,164.921
			h-4.397l-1.015,1.421h3.992v13.128l1.421-1.014L164.362,164.921L164.362,164.921z M180.74,183.259l-6.228-4.871l-1.287,1.422
			l-0.541-0.543l1.488-1.623v-23.687h-3.925l-0.135-0.137l2.368-3.521h1.688v-4.533l7.175-7.646l0.137,0.136v12.046h5.412
			l0.138,0.137l-2.369,3.521h-3.181v20.505l3.723,2.844l1.421-1.557l0.541,0.541L180.74,183.259L180.74,183.259z M176.34,144.616
			l-1.421,1.557v4.129h1.421V144.616z M176.34,176.966v-23.009h-1.421v23.82l5.752,4.468l1.016-1.082L176.34,176.966L176.34,176.966
			z"/>
	</g>
</g>
</svg>
