<?xml version="1.0" encoding="UTF-8" standalone="no"?>
<svg
   xmlns:dc="http://purl.org/dc/elements/1.1/"
   xmlns:cc="http://creativecommons.org/ns#"
   xmlns:rdf="http://www.w3.org/1999/02/22-rdf-syntax-ns#"
   xmlns:svg="http://www.w3.org/2000/svg"
   xmlns="http://www.w3.org/2000/svg"
   xml:space="preserve"
   height="70.784996"
   width="461.95898"
   id="Layer_1"
   version="1.1"><g
     transform="translate(-5.8200074,-0.94)"
     id="twp_x5F_full"><g
       id="g12"><path
         style="fill:#231f20"
         id="path14"
         d="m 31.536,22.732 0,25.039 c 3.383,-1.827 5.752,-5.008 6.902,-8.595 l 0.271,0.136 c -0.745,8.933 -6.835,17.865 -16.309,17.865 -9.542,0 -16.58,-7.105 -16.58,-18.475 0,-8.526 5.549,-13.873 12.655,-18.678 -1.015,-0.271 -2.098,-0.406 -3.181,-0.406 -4.873,0 -7.715,3.316 -7.715,6.7 l -0.406,0 C 7.105,25.844 7.105,25.371 7.105,24.897 c 0,-6.023 3.181,-13.332 10.896,-13.332 4.94,0 8.73,4.534 14.482,4.534 2.301,0 5.143,-1.083 6.293,-3.587 l 0.203,0 c -0.067,4.4 -1.42,8.934 -7.443,10.22 z M 35.19,48.38 c -3.384,3.586 -7.038,6.632 -11.775,6.632 -8.797,0 -15.564,-6.903 -15.564,-16.919 0,-5.887 2.436,-9.067 5.143,-12.79 l -0.271,0 c -1.692,1.692 -6.158,5.955 -6.158,13.196 0,11.099 6.97,17.934 16.106,17.934 6.361,0 10.692,-4.398 12.655,-7.985 L 35.19,48.38 Z m 2.706,-32.821 c -1.15,2.165 -3.586,4.939 -8.526,4.939 -4.94,0 -9.474,-3.384 -13.467,-3.384 -3.655,0 -6.158,2.437 -7.106,4.264 l 0.068,0.136 c 1.286,-1.286 3.248,-2.572 6.429,-2.572 5.278,0 8.662,3.249 14.008,3.249 5.685,0 8.256,-3.723 8.73,-6.564 l -0.136,-0.068 z m -18.813,4.669 c -3.451,3.587 -6.632,7.512 -6.632,15.159 0,4.195 1.421,8.526 4.602,11.233 l 1.962,-1.016 0,-18.135 -1.827,0.947 -0.338,-0.677 9.474,-5.144 c -2.571,-0.54 -4.872,-1.69 -7.241,-2.367 z m 11.708,2.639 c -0.474,0.067 -0.947,0.067 -1.489,0.067 -0.947,0 -1.827,-0.067 -2.707,-0.271 l 0,19.76 -8.865,4.807 c 1.827,1.353 4.06,2.165 6.902,2.165 2.301,0 4.331,-0.474 6.158,-1.286 l 0,-25.242 z m -9.745,3.452 -1.286,0.744 0,18.137 1.286,-0.677 0,-18.204 z m 38.912,2.571 0,23.415 c 0,6.496 -5.752,10.896 -12.181,12.181 l -0.135,-0.271 c 3.181,-1.557 5.008,-4.737 5.008,-8.121 l 0,-24.227 -3.654,-3.315 -1.421,1.556 0,18.881 2.03,1.827 0,0.136 -5.481,5.955 -6.293,-5.752 0,-0.271 2.436,-2.572 0,-29.911 7.173,-7.646 0.135,0.067 0,18.136 5.888,-6.361 6.158,5.55 1.15,-1.219 0.542,0.475 -1.355,1.487 z m -18.948,22.129 0,-0.135 1.421,-1.422 0,-32.212 -1.421,1.49 0,30.046 -2.166,2.166 0,0.135 5.278,4.737 0.947,-1.083 -4.059,-3.722 z m 13.805,-20.235 -4.399,-3.789 -0.947,1.015 3.925,3.52 0,24.362 c 0,1.624 -0.338,3.315 -0.947,4.263 l 0.068,0.068 c 1.692,-1.219 2.301,-3.046 2.301,-5.414 l 0,-24.025 z m 15.903,11.708 0,3.451 6.564,5.143 3.79,-4.06 0.542,0.541 -8.797,9.406 -8.933,-7.173 -1.353,1.421 -0.542,-0.541 1.557,-1.624 0,-17.121 12.79,-9.339 6.7,10.828 -12.318,9.068 z m -5.008,5.956 0,-17.19 -1.421,1.016 0,16.851 8.392,6.835 1.083,-1.15 -8.054,-6.362 z m 5.144,-20.844 -0.136,0.068 0,13.873 6.023,-4.399 -5.887,-9.542 z m 1.759,-1.353 -1.218,0.879 5.956,9.542 1.218,-0.88 -5.956,-9.541 z" /><path
         style="fill:#231f20"
         id="path16"
         d="m 127.147,56.906 -9.407,-8.121 -7.173,8.121 -9.745,-8.392 0,-13.263 -1.895,0 c -1.692,0 -2.571,1.083 -2.978,2.368 l -0.203,0 c -0.135,-0.541 -0.338,-1.488 -0.338,-2.571 0,-1.76 0.474,-6.361 5.414,-6.361 l 0,-11.64 c 0,-2.233 -2.639,-3.113 -2.639,-6.091 0,-3.856 3.654,-7.646 10.354,-10.016 l 0.271,0.203 c -2.436,1.422 -3.722,2.775 -3.722,5.685 0,4.467 4.331,3.316 4.331,10.354 l 0,2.707 7.918,-8.324 8.324,8.188 7.85,-8.188 7.579,7.444 0,25.039 -13.941,12.858 z m -24.159,-9.474 0,-14.278 -3.79,0 c -1.963,0 -2.842,1.285 -2.978,2.436 l 0.067,0.068 c 0.677,-0.744 1.354,-1.15 2.91,-1.15 l 2.368,0 0,13.67 8.933,7.715 1.015,-1.219 -8.525,-7.242 z m 0,-31.062 c 0,-2.774 -2.436,-3.722 -2.436,-5.481 0,-2.437 0.947,-4.466 2.436,-6.361 l -0.135,-0.067 c -2.03,1.557 -3.925,4.061 -3.925,6.496 0,2.437 2.639,3.587 2.639,5.753 l 0,11.978 1.421,0 0,-12.318 z m 14.279,6.768 -5.143,-5.008 -2.707,2.774 0,23.956 6.158,5.211 1.692,-1.895 0,-25.038 z m 2.165,24.159 0,-25.106 -5.752,-5.685 -1.083,1.083 5.414,5.21 0,25.242 9.136,7.918 1.083,-1.016 -8.798,-7.646 z m 13.129,-25.039 -4.263,-4.061 -2.436,2.504 0,24.092 6.632,5.819 0.067,-0.067 0,-28.287 z m 2.165,-0.947 -4.94,-4.805 -1.015,1.083 4.534,4.331 0,28.287 1.421,-1.354 0,-27.542 z" /><path
         style="fill:#231f20"
         id="path18"
         d="m 163.481,56.906 -6.429,-5.82 -5.752,5.82 -7.038,-6.226 -0.948,1.015 -0.541,-0.541 1.218,-1.286 0,-18.135 12.723,-9.204 7.309,5.685 1.286,-1.354 0.542,0.542 -1.489,1.556 0,18.746 3.586,3.315 1.151,-1.218 0.541,0.474 -6.159,6.631 z m -17.324,-7.511 0,-18.272 -1.421,1.015 0,17.934 6.497,5.82 1.083,-1.083 -6.159,-5.414 z m 10.895,-17.798 -5.549,-4.331 -0.203,0.136 0,19.692 4.602,3.992 1.15,-1.15 0,-18.339 z m 2.166,18.407 0,-19.422 -5.752,-4.67 -1.353,0.947 5.684,4.467 0,19.354 5.685,5.143 1.015,-1.083 -5.279,-4.736 z m 23.956,-15.159 6.97,0 0,14.482 -10.76,7.579 c -1.421,-1.624 -3.452,-2.774 -5.955,-2.774 -2.03,0 -3.655,0.677 -5.82,2.504 l -0.338,-0.136 9.204,-13.399 -5.685,0 0,-12.587 11.302,-7.85 c 1.353,1.083 2.368,1.691 4.128,1.691 1.354,0 3.316,-0.271 4.805,-1.488 l 0.271,0.135 -8.122,11.843 z m -7.579,17.324 c -1.963,0 -3.519,0.677 -4.873,1.624 l 0,0.136 c 1.083,-0.474 2.166,-0.609 3.181,-0.609 1.556,0 3.993,0.745 5.617,2.64 l 1.557,-1.15 c -1.287,-1.49 -2.843,-2.641 -5.482,-2.641 z m 7.24,-11.369 -3.79,0 -7.918,11.438 0.068,0.135 c 1.962,-1.421 3.857,-2.368 6.158,-2.368 2.03,0 4.128,0.947 5.414,2.571 l 0.068,-0.067 0,-11.709 z m -9.88,0 0,-10.894 -1.421,1.015 0,11.369 5.481,0 1.083,-1.489 -5.143,0 z m 14.144,-13.264 c -1.421,1.016 -2.233,1.557 -4.602,1.557 -1.354,0 -2.978,-0.609 -4.263,-1.963 l -0.135,0.068 0,9.88 2.571,0 6.497,-9.475 -0.068,-0.067 z m -3.248,-0.609 c -1.218,0 -2.774,-0.608 -3.79,-1.962 l -1.692,1.15 c 1.286,1.557 2.504,2.233 4.398,2.233 1.218,0 2.978,-0.339 4.805,-1.896 l 0.067,-0.202 c -1.149,0.475 -2.57,0.677 -3.788,0.677 z m 1.15,11.641 -4.399,0 -1.015,1.421 3.993,0 0,13.128 1.421,-1.015 0,-13.534 z m 28.49,-9.678 0,23.415 c 0,6.496 -5.752,10.896 -12.181,12.181 l -0.135,-0.271 c 3.181,-1.557 5.008,-4.737 5.008,-8.121 l 0,-24.227 -3.654,-3.315 -1.421,1.556 0,18.881 2.03,1.827 0,0.136 -5.481,5.955 -6.293,-5.752 0,-0.271 2.436,-2.572 0,-29.911 7.173,-7.646 0.135,0.067 0,18.136 5.888,-6.361 6.158,5.55 1.15,-1.219 0.542,0.475 -1.355,1.487 z m -18.948,22.129 0,-0.135 1.421,-1.422 0,-32.212 -1.421,1.489 0,30.046 -2.166,2.166 0,0.135 5.278,4.737 0.947,-1.083 -4.059,-3.721 z m 13.805,-20.235 -4.399,-3.789 -0.947,1.015 3.925,3.52 0,24.362 c 0,1.624 -0.338,3.315 -0.947,4.263 l 0.068,0.068 c 1.692,-1.219 2.301,-3.046 2.301,-5.414 l 0,-24.025 z m 17.46,26.122 -5.82,-5.346 -1.354,1.421 -0.542,-0.542 1.557,-1.691 0,-19.557 -2.842,-2.707 -1.083,1.219 -0.542,-0.542 6.09,-6.632 5.414,4.873 1.354,-1.489 0.609,0.474 -1.692,1.827 0,19.761 3.249,3.045 1.489,-1.557 0.541,0.542 -6.428,6.901 z m -3.993,-6.631 0,-20.167 -3.519,-3.248 -0.947,1.083 3.045,2.91 0,20.099 5.414,4.872 1.015,-1.083 -5.008,-4.466 z m 2.03,-28.287 -5.549,-5.075 5.076,-5.414 5.549,5.075 -5.076,5.414 z m -3.451,-6.159 -1.015,1.015 4.398,4.128 1.015,-1.15 -4.398,-3.993 z" /><path
         style="fill:#231f20"
         id="path20"
         d="m 254.423,56.906 -5.888,-5.346 0,-19.76 -3.587,-3.248 -1.895,2.03 0,18.271 2.098,1.962 0,0.271 -5.549,5.82 -6.294,-5.752 0,-0.203 2.437,-2.571 0,-17.054 -3.181,-2.91 -1.286,1.421 -0.541,-0.541 6.158,-6.7 6.158,5.482 0,1.353 6.429,-6.835 6.022,5.414 1.354,-1.421 0.609,0.541 -1.624,1.692 0,19.354 3.045,2.842 1.489,-1.624 0.541,0.541 -6.495,6.971 z m -17.866,-5.887 0,-0.135 c 0,0.135 1.354,-1.354 1.354,-1.354 l 0,-19.22 -3.858,-3.519 -0.948,1.015 3.384,3.113 0,17.865 -2.098,2.166 0,0.135 5.211,4.737 1.082,-1.15 -4.127,-3.653 z m 14.143,-0.541 0,-19.828 -4.195,-3.79 -1.083,1.15 3.857,3.451 0,19.693 5.075,4.737 1.083,-1.151 -4.737,-4.262 z m 22.806,18.609 c -2.232,-2.436 -3.789,-3.451 -5.887,-3.451 -2.233,0 -4.805,0.88 -7.444,2.301 l -0.203,-0.202 9.339,-10.828 -6.632,-5.278 -1.286,1.354 -0.541,-0.474 1.488,-1.624 0,-19.152 12.858,-9.204 7.173,5.685 1.219,-1.354 0.541,0.542 -1.421,1.556 0,23.145 c 0,3.519 1.962,3.384 1.962,6.022 0,3.045 -4.399,5.887 -11.166,10.962 z m -9,-18.745 0,-19.151 -1.421,1.016 0,18.745 6.699,5.414 1.016,-1.219 -6.294,-4.805 z m 4.737,13.535 c -2.233,0 -4.264,0.677 -6.158,1.962 l 0,0.136 c 1.218,-0.474 2.571,-1.083 4.872,-1.083 2.098,0 3.857,1.15 5.617,3.181 l 1.354,-1.083 c -1.693,-1.962 -3.723,-3.113 -5.685,-3.113 z m 8.256,-6.497 c -1.691,-1.083 -2.098,-2.233 -2.098,-5.143 l 0,-1.219 -11.234,12.993 0.068,0.067 c 2.165,-1.285 4.128,-2.232 7.309,-2.232 2.707,0 4.534,1.082 6.632,2.842 1.286,-1.083 2.165,-2.165 2.165,-3.857 0,-1.353 -1.151,-2.368 -2.842,-3.451 z m -2.098,-25.783 -5.617,-4.398 -0.136,0.135 0,20.775 4.332,3.384 1.421,-1.624 0,-18.272 z m 4.128,24.836 c -1.76,-1.354 -1.963,-2.504 -1.963,-5.414 l 0,-20.572 -5.685,-4.602 -1.285,0.88 5.549,4.398 0,20.843 c 0,2.91 0.136,3.723 1.963,4.94 1.624,1.083 2.909,2.233 2.909,3.79 0,0.405 -0.067,1.082 -0.067,1.082 l 0.067,0.068 c 0.339,-0.339 0.745,-0.88 0.745,-1.76 10e-4,-1.488 -0.744,-2.503 -2.233,-3.653 z m 16.242,0.473 -6.226,-4.872 -1.286,1.421 -0.541,-0.542 1.488,-1.624 0,-23.685 -3.925,0 -0.136,-0.135 2.369,-3.52 1.691,0 0,-4.533 7.174,-7.647 0.135,0.136 0,12.045 5.414,0 0.136,0.136 -2.369,3.519 -3.181,0 0,20.505 3.723,2.843 1.421,-1.557 0.541,0.541 -6.428,6.969 z m -4.399,-38.641 -1.421,1.557 0,4.128 1.421,0 0,-5.685 z m 0,32.348 0,-23.009 -1.421,0 0,23.821 5.752,4.467 1.015,-1.083 -5.346,-4.196 z m 32.956,-21.046 0,18.948 -11.437,8.459 -8.595,-6.496 -1.015,1.15 -0.541,-0.542 1.218,-1.353 0,-18.542 11.979,-8.595 7.985,6.227 1.285,-1.354 0.542,0.541 -1.421,1.557 z m -18.203,19.49 0,-18.475 -1.422,1.015 0,18.204 8.121,6.226 1.286,-0.947 -7.985,-6.023 z M 317.02,31.8 l -5.685,-4.467 -0.067,0.068 0,20.166 5.752,4.331 0,-20.098 z m 2.166,-1.218 -6.294,-4.873 -1.285,0.947 6.158,4.737 0,21.047 1.421,-1.082 0,-20.776 z m 30.994,26.324 -5.888,-5.346 0,-19.76 -3.587,-3.248 -1.895,2.03 0,18.271 2.098,1.962 0,0.271 -5.549,5.82 -6.294,-5.752 0,-0.203 2.437,-2.571 0,-17.054 -3.181,-2.91 -1.286,1.421 -0.541,-0.541 6.158,-6.7 6.158,5.482 0,1.353 6.429,-6.835 6.023,5.414 1.353,-1.421 0.609,0.541 -1.624,1.692 0,19.354 3.045,2.842 1.489,-1.624 0.541,0.541 -6.495,6.971 z m -17.867,-5.887 0,-0.135 c 0,0.135 1.354,-1.354 1.354,-1.354 l 0,-19.22 -3.857,-3.519 -0.947,1.015 3.384,3.113 0,17.865 -2.098,2.166 0,0.135 5.211,4.737 1.083,-1.15 -4.13,-3.653 z m 14.144,-0.541 0,-19.828 -4.195,-3.79 -1.083,1.15 3.857,3.451 0,19.693 5.075,4.737 1.083,-1.151 -4.737,-4.262 z" /><path
         style="fill:#231f20"
         id="path22"
         d="m 391.986,56.906 c -1.895,-2.03 -2.571,-2.707 -4.805,-3.316 l 0,1.489 0,11.775 -0.136,0.067 -2.707,-2.437 -7.85,7.241 -0.136,-0.067 0,-18.203 c -2.368,0.541 -4.872,1.76 -7.309,4.195 l -0.135,-0.067 c 0.474,-5.211 3.045,-9.068 7.443,-10.557 l 0,-13.196 -1.421,0 c -1.962,0 -3.045,1.015 -3.992,2.842 l -0.203,0 c -0.203,-0.608 -0.339,-1.557 -0.339,-3.112 0,-2.843 2.098,-5.82 5.55,-5.82 l 0.405,0 0,-7.309 -2.774,-2.504 -1.354,1.354 -0.474,-0.474 6.835,-7.241 6.361,5.82 0,6.158 1.489,-1.624 0,-7.783 0.744,0 0,7.106 9,-9.678 7.647,6.971 0,29.438 -11.839,8.932 z m -15.632,-5.955 c -2.774,0.541 -4.736,2.233 -6.022,4.466 l 0.067,0.136 c 1.896,-1.624 3.654,-2.368 5.955,-2.91 l 0,-1.692 z m 2.166,-19.421 -3.722,0 c -2.572,0 -3.587,1.624 -3.654,3.519 l 0.067,0.067 c 0.812,-1.354 1.624,-1.827 3.248,-2.029 l 2.64,0 0,36.881 1.421,-1.354 0,-37.084 z m 0,-12.182 -3.384,-3.112 -1.083,1.15 3.046,2.706 0,7.647 1.421,0 0,-8.391 z m 7.918,3.857 -1.489,1.557 0,39.183 1.489,1.354 0,-42.094 z m 8.865,-1.556 -3.993,-3.654 -4.128,4.467 0,23.82 c 3.519,0.339 5.955,1.354 8.053,3.654 l 0.068,-0.067 0,-28.22 z m -8.121,29.302 0,1.76 c 2.301,0.541 3.248,1.218 4.872,3.112 l 1.557,-1.218 c -1.625,-2.03 -3.249,-3.247 -6.429,-3.654 z m 10.286,-30.384 -4.602,-4.264 -1.083,1.15 4.264,3.925 0,31.468 1.421,-1.083 0,-31.196 z m 29.979,9 0,18.948 -11.438,8.459 -8.594,-6.496 -1.016,1.15 -0.541,-0.542 1.218,-1.353 0,-18.542 11.979,-8.595 7.985,6.227 1.285,-1.354 0.542,0.541 -1.42,1.557 z m -18.204,19.49 0,-18.475 -1.422,1.015 0,18.204 8.121,6.226 1.286,-0.947 -7.985,-6.023 z m 10.895,-17.257 -5.684,-4.467 -0.068,0.068 0,20.166 5.752,4.331 0,-20.098 z m 2.166,-1.218 -6.294,-4.873 -1.285,0.947 6.158,4.737 0,21.047 1.421,-1.082 0,-20.776 z m 20.842,4.263 6.971,0 0,14.482 -10.76,7.579 c -1.421,-1.624 -3.451,-2.774 -5.955,-2.774 -2.03,0 -3.654,0.677 -5.82,2.504 l -0.338,-0.136 9.203,-13.399 -5.685,0 0,-12.587 11.302,-7.85 c 1.354,1.083 2.368,1.691 4.128,1.691 1.354,0 3.315,-0.271 4.805,-1.488 l 0.271,0.135 -8.122,11.843 z m -7.579,17.324 c -1.962,0 -3.519,0.677 -4.872,1.624 l 0,0.136 c 1.083,-0.474 2.165,-0.609 3.181,-0.609 1.557,0 3.992,0.745 5.616,2.64 l 1.557,-1.15 c -1.285,-1.49 -2.842,-2.641 -5.482,-2.641 z m 7.242,-11.369 -3.79,0 -7.917,11.438 0.067,0.135 c 1.962,-1.421 3.857,-2.368 6.158,-2.368 2.03,0 4.128,0.947 5.414,2.571 l 0.067,-0.067 0,-11.709 z m -9.88,0 0,-10.894 -1.422,1.015 0,11.369 5.481,0 1.083,-1.489 -5.142,0 z m 14.143,-13.264 c -1.422,1.016 -2.233,1.557 -4.603,1.557 -1.354,0 -2.978,-0.609 -4.263,-1.963 l -0.136,0.068 0,9.88 2.571,0 6.497,-9.475 -0.066,-0.067 z m -3.249,-0.609 c -1.218,0 -2.774,-0.608 -3.789,-1.962 l -1.692,1.15 c 1.286,1.557 2.504,2.233 4.399,2.233 1.218,0 2.978,-0.339 4.805,-1.896 l 0.067,-0.202 c -1.15,0.475 -2.571,0.677 -3.79,0.677 z m 1.151,11.641 -4.398,0 -1.015,1.421 3.992,0 0,13.128 1.421,-1.015 0,-13.534 z m 16.377,18.338 -6.226,-4.872 -1.286,1.421 -0.541,-0.542 1.488,-1.624 0,-23.685 -3.925,0 -0.135,-0.135 2.368,-3.52 1.691,0 0,-4.533 7.174,-7.647 0.136,0.136 0,12.045 5.413,0 0.136,0.136 -2.369,3.519 -3.18,0 0,20.505 3.722,2.843 1.421,-1.557 0.541,0.541 -6.428,6.969 z m -4.399,-38.641 -1.421,1.557 0,4.128 1.421,0 0,-5.685 z m 0,32.348 0,-23.009 -1.421,0 0,23.821 5.752,4.467 1.015,-1.083 -5.346,-4.196 z" /></g></g></svg>